<svg width="647" height="67" viewBox="0 0 647 135" fill="none" xmlns="http://www.w3.org/2000/svg">
<g clip-path="url(#clip0_28_4)">
<g clip-path="url(#clip1_28_4)">
<rect width="644.419" height="123.108" transform="translate(0 11.2467) rotate(-1)" fill="#7B03FF"/>
<path d="M19.1174 39.2064C21.2112 39.6835 23.2046 40.0324 25.0977 40.2532C26.9908 40.474 28.6546 40.6345 30.0893 40.7347C31.7858 40.8946 33.3493 40.9269 34.7799 40.8318C36.6024 40.7937 38.8772 40.5832 41.6041 40.2005C44.3962 39.8164 47.254 39.4635 50.1776 39.1418C53.0998 38.755 55.8946 38.5011 58.5619 38.3801C61.293 38.1927 63.5094 38.309 65.2113 38.7292C66.9118 39.0843 68.6497 39.6665 70.4248 40.4759C72.2637 41.2188 73.9446 42.1929 75.4676 43.3983C76.9892 44.5385 78.2552 45.9121 79.2656 47.5189C80.2747 49.0606 80.8655 50.8389 81.0379 52.854C81.026 55.3939 80.49 57.7819 79.4298 60.0182C78.5581 61.9249 77.0694 63.9096 74.9637 65.9724C72.8566 67.9701 69.7962 69.5319 65.7824 70.6579C67.8057 70.876 69.5401 71.2955 70.9857 71.9164C72.495 72.4708 73.7793 73.1602 74.8385 73.9846C75.9613 74.7425 76.8585 75.6028 77.5298 76.5655C78.2663 77.5268 78.84 78.4916 79.251 79.4598C80.275 81.7175 80.7838 84.2464 80.7774 87.0466C80.4632 90.6999 79.7753 93.612 78.7138 95.7832C77.7173 97.953 76.548 99.638 75.2056 100.838C73.8633 102.038 72.4809 102.881 71.0584 103.367C69.636 103.853 68.3417 104.238 67.1755 104.523C66.0094 104.808 64.5801 104.968 62.8878 105.003C61.1955 105.039 59.3723 105.044 57.4182 105.02C55.5279 104.93 53.5731 104.873 51.554 104.85C49.5335 104.762 47.6133 104.802 45.7935 104.971C44.2992 105.132 42.4794 105.301 40.3341 105.476C38.5144 105.644 36.2396 105.855 33.5099 106.107C30.7789 106.295 27.5929 106.524 23.9519 106.796C24.657 106.26 25.2306 105.662 25.6726 105.001C26.1783 104.275 26.5884 103.647 26.903 103.12C27.2148 102.462 27.4947 101.838 27.7428 101.246C27.9272 100.722 28.0599 99.2862 28.141 96.9402C28.2221 94.5942 28.2611 91.7933 28.258 88.5375C28.2536 85.2165 28.2118 81.6684 28.1327 77.8932C28.1174 74.0516 28.0078 70.3747 27.804 66.8625C27.6639 63.284 27.4676 60.1298 27.2151 57.4001C27.0263 54.604 26.7887 52.5903 26.5025 51.3591C26.0833 50.0004 25.5333 48.6118 24.8524 47.1935C24.3057 45.9677 23.5293 44.649 22.5229 43.2375C21.5817 41.8246 20.4465 40.4809 19.1174 39.2064ZM39.927 48.7336C39.9324 48.9939 39.9834 49.872 40.0798 51.3677C40.1722 52.6681 40.2796 54.6845 40.4019 57.417C40.588 60.0829 40.8305 63.8873 41.1294 68.83C42.7716 69.5119 44.3745 69.869 45.938 69.9014C47.5002 69.8687 48.8982 69.7743 50.1322 69.6182C51.5601 69.3929 52.9202 69.0389 54.2124 68.556C55.9549 67.8032 57.2972 66.6029 58.2395 64.9552C59.2468 63.3061 59.8948 61.5995 60.1835 59.8352C60.5358 58.0045 60.598 56.3102 60.37 54.7521C60.1407 53.1289 59.693 51.9662 59.0271 51.2638C57.7672 50.1832 56.2185 49.304 54.381 48.6262C52.8066 48.0731 50.8132 47.7241 48.4008 47.5793C46.0521 47.368 43.2275 47.7528 39.927 48.7336ZM40.4082 95.0227C42.8424 96.209 44.9749 96.9783 46.8056 97.3307C48.6363 97.683 50.17 97.8463 51.4067 97.8203C52.8387 97.7904 54.0713 97.5692 55.1046 97.1568C56.329 96.5451 57.5168 95.7388 58.668 94.7379C59.8829 93.6706 60.7689 92.4473 61.3261 91.0682C61.947 89.6226 62.1746 88.0549 62.009 86.3653C61.842 84.6106 61.0532 82.7062 59.6427 80.6519C58.3747 79.1808 56.853 78.0405 55.0779 77.2311C53.5007 76.5479 51.506 76.1338 49.0935 75.989C46.7462 75.8428 43.8613 76.4568 40.4388 77.8308L40.4082 95.0227ZM118.332 33.3187C121.85 33.3752 125.411 33.9518 129.015 35.0485C132.684 36.0786 136.074 37.8309 139.186 40.3054C142.297 42.7147 144.968 45.8821 147.2 49.8076C149.429 53.668 150.864 58.4241 151.503 64.0761C152.056 68.6879 151.566 73.289 150.034 77.8794C148.566 82.4033 146.472 86.5822 143.752 90.416C141.033 94.2499 137.878 97.5393 134.289 100.284C130.699 102.964 127.09 104.766 123.462 105.688C121.26 106.255 118.821 106.371 116.144 106.037C113.531 105.636 110.845 104.878 108.087 103.764C105.392 102.583 102.723 101.076 100.08 99.2427C97.5019 97.4083 95.1463 95.3087 93.0129 92.944C90.8783 90.5143 89.0649 87.8824 87.573 85.0484C86.1461 82.2131 85.2372 79.2367 84.8463 76.1192C84.4663 73.5224 84.3738 70.6591 84.5687 67.5294C84.8273 64.3331 85.3796 61.1633 86.2254 58.0199C87.1349 54.8101 88.4052 51.7229 90.0362 48.7584C91.7309 45.7275 93.8894 43.0775 96.5117 40.8085C99.1327 38.4745 102.22 36.6516 105.774 35.3399C109.392 33.9618 113.578 33.288 118.332 33.3187ZM101.684 73.2269C100.919 80.2106 101.687 85.7947 103.988 89.9792C106.355 94.1623 109.826 96.6618 114.402 97.4776C116.624 97.8868 118.73 97.3869 120.719 95.9777C122.772 94.5021 124.617 92.4123 126.253 89.7081C127.89 87.004 129.289 83.849 130.45 80.2432C131.612 76.6373 132.445 72.8756 132.949 68.9579C133.453 65.0402 133.412 61.5247 132.826 58.4113C132.303 55.2314 131.433 52.5472 130.215 50.3587C128.996 48.1051 127.527 46.3777 125.809 45.1764C124.156 43.9738 122.449 43.3258 120.689 43.2324C117.626 43.1013 114.974 43.9708 112.734 45.841C110.493 47.6462 108.621 49.9971 107.119 52.8938C105.617 55.7904 104.415 59.039 103.513 62.6394C102.677 66.2384 102.067 69.7676 101.684 73.2269ZM151.62 37.0169C154.56 37.4763 156.976 37.7838 158.868 37.9395C160.759 38.0953 162.292 38.2259 163.467 38.3316C164.836 38.4331 165.911 38.4432 166.691 38.3617L169.62 38.3004C170.661 38.2786 171.963 38.2513 173.525 38.2186C175.151 38.1194 177.168 38.0446 179.576 37.9941C181.01 41.1549 182.308 44.058 183.471 46.7036C184.698 49.3477 185.722 51.6054 186.543 53.4766C187.502 55.7357 188.391 57.7683 189.21 59.5745C190.169 61.8335 191.198 64.319 192.297 67.031C193.395 69.7429 194.393 72.2942 195.29 74.6848C196.251 77.0741 197.042 79.0436 197.66 80.5935C198.279 82.1434 198.586 82.8533 198.584 82.7231C198.582 82.658 198.601 82.0064 198.64 80.7683C198.678 79.4652 198.71 77.8691 198.736 75.9801C198.76 74.0261 198.781 71.9093 198.798 69.6298C198.879 67.2838 198.897 65.0369 198.852 62.8889C198.871 60.6745 198.861 58.656 198.823 56.8335C198.785 55.011 198.691 53.6454 198.542 52.7369C198.323 51.6345 197.906 50.3734 197.29 48.9537C196.744 47.7279 195.997 46.2784 195.05 44.6051C194.102 42.8668 192.791 40.9081 191.118 38.7292C193.788 38.7383 195.969 38.7252 197.661 38.6898C199.354 38.6543 200.721 38.6257 201.762 38.6039C202.934 38.5793 203.844 38.5277 204.494 38.449C205.34 38.4312 206.38 38.3443 207.614 38.1883C208.718 38.0349 210.083 37.9086 211.709 37.8095C213.398 37.6438 215.478 37.4375 217.947 37.1904C216.542 38.5222 215.429 39.7828 214.607 40.9721C213.786 42.1614 213.124 43.2172 212.623 44.1394C212.059 45.1931 211.688 46.1776 211.512 47.0929C211.276 48.27 211.089 50.1949 210.95 52.8677C210.874 55.474 210.773 58.4065 210.645 61.6651C210.583 64.9223 210.524 68.3097 210.468 71.8273C210.411 75.3449 210.348 78.5695 210.279 81.5013C210.326 83.7144 210.311 86.0915 210.234 88.6327C210.148 90.7834 210.069 93.227 209.996 95.9635C209.922 98.6349 209.816 101.34 209.678 104.077L200.993 104.455C198.36 100.017 196.132 96.2214 194.307 93.0688C192.547 89.8498 191.091 87.2104 189.941 85.1507C188.654 82.7683 187.57 80.7723 186.69 79.1628C185.941 77.6156 184.96 75.8454 183.746 73.8522C182.734 72.1803 181.454 70.1233 179.905 67.6813C178.421 65.2378 176.637 62.4426 174.553 59.2954C174.452 63.7907 174.434 67.6331 174.501 70.8225C174.632 73.9454 174.784 76.547 174.958 78.6271C175.203 81.0314 175.473 83.0444 175.768 84.6662C176.126 86.2215 176.619 87.9694 177.245 89.9098C177.801 91.5912 178.461 93.5635 179.225 95.8267C180.054 98.0885 181.051 100.64 182.218 103.481C178.374 103.366 175.508 103.328 173.62 103.368L170.691 103.429C169.78 103.448 168.545 103.572 166.987 103.8C165.688 103.957 163.902 104.19 161.629 104.498C159.422 104.805 156.663 105.221 153.353 105.746C154.875 103.825 156.076 102.075 156.955 100.493C157.897 98.8456 158.617 97.4631 159.114 96.3456C159.738 95.0302 160.17 93.8816 160.41 92.8998C160.583 91.8542 160.676 90.0615 160.688 87.5217C160.698 84.9167 160.637 81.9877 160.504 78.7345C160.434 75.415 160.296 71.934 160.089 68.2917C159.948 64.648 159.78 61.2654 159.584 58.1438C159.388 55.0222 159.17 52.3569 158.928 50.148C158.751 47.9377 158.625 46.5728 158.549 46.0535C158.336 45.2114 157.927 44.3083 157.32 43.3442C156.782 42.509 156.079 41.5795 155.211 40.5558C154.341 39.467 153.145 38.2873 151.62 37.0169ZM254.598 33.59C258.763 33.4376 262.196 34.1146 264.897 35.6209C267.664 37.1258 269.915 38.9345 271.653 41.047C273.39 43.1595 274.738 45.3127 275.695 47.5067C276.651 49.6356 277.403 51.3129 277.95 52.5387C278.087 52.8614 278.356 53.2791 278.757 53.7916C279.092 54.2404 279.559 54.7841 280.159 55.4228C280.822 55.9949 281.65 56.6613 282.643 57.422C280.626 57.5293 278.838 57.6319 277.277 57.7297C275.715 57.7624 274.381 57.8229 273.276 57.9112C272.04 58.0022 270.935 58.0905 269.96 58.176C268.985 58.2616 267.783 58.3844 266.354 58.5446C265.055 58.702 263.463 58.8656 261.578 59.0353C259.693 59.2051 257.387 59.4487 254.658 59.7664C256.245 57.7796 257.478 56.0281 258.358 54.512C259.301 52.9293 259.989 51.5475 260.42 50.3663C260.915 49.1187 261.185 48.0386 261.231 47.1259C261.342 46.212 261.293 45.4316 261.084 44.7847C260.662 43.2959 259.631 42.243 257.99 41.6262C253.276 40.4226 249.197 41.5499 245.753 45.0082C242.373 48.4001 240.014 53.9194 238.677 61.5663C238.04 65.3565 237.439 69.3088 236.874 73.4231C236.373 77.4709 236.223 81.1858 236.424 84.5677C236.623 87.8846 237.331 90.5722 238.546 92.6305C239.761 94.6889 241.8 95.6229 244.661 95.4328C247.457 95.244 249.823 94.7386 251.76 93.9166C253.695 93.0295 255.236 92.0204 256.385 90.8894C257.532 89.6932 258.319 88.4395 258.748 87.1281C259.24 85.7503 259.409 84.477 259.254 83.3081C258.974 82.4023 258.271 81.4403 257.142 80.422C256.147 79.5312 254.661 78.553 252.685 77.4873C250.708 76.3566 247.884 75.2111 244.213 74.0507C247.659 73.7832 250.487 73.5937 252.699 73.4823C254.974 73.3044 256.762 73.1367 258.061 72.9793C259.62 72.8164 260.822 72.6935 261.667 72.6107C262.447 72.5292 263.584 72.4403 265.08 72.3438C266.381 72.2515 268.04 72.1842 270.058 72.1419C272.14 72.0983 274.743 72.0112 277.866 71.8806C276.719 73.0768 275.83 74.1699 275.2 75.1599C274.885 75.6874 274.602 76.1492 274.35 76.5452C274.103 77.2015 274.034 78.5379 274.141 80.5543C274.176 82.2467 274.359 84.7499 274.689 88.064C275.017 91.3131 275.599 95.7615 276.434 101.409L263.485 103.439L263.795 90.2458C262.373 93.8571 260.541 96.5653 258.3 98.3704C256.123 100.174 254.034 101.455 252.031 102.214C249.64 103.11 247.143 103.553 244.538 103.543C241.146 103.288 237.745 102.578 234.335 101.412C230.924 100.246 227.89 98.4214 225.234 95.9374C222.575 93.3883 220.487 90.0785 218.97 86.0078C217.517 81.9358 216.987 76.8676 217.381 70.8034C217.84 64.7377 219.162 59.4355 221.346 54.8965C223.594 50.2912 226.411 46.4553 229.798 43.3889C233.185 40.3225 237.011 37.9957 241.276 36.4087C245.604 34.7552 250.045 33.8156 254.598 33.59ZM314.188 29.2161C317.705 29.2726 321.266 29.8492 324.871 30.9459C328.539 31.976 331.929 33.7283 335.042 36.2028C338.153 38.6121 340.824 41.7795 343.055 45.705C345.285 49.5654 346.719 54.3216 347.359 59.9735C347.911 64.5853 347.421 69.1864 345.89 73.7768C344.422 78.3007 342.328 82.4796 339.608 86.3134C336.888 90.1473 333.734 93.4367 330.144 96.1818C326.554 98.8617 322.945 100.663 319.318 101.585C317.116 102.153 314.676 102.269 311.999 101.934C309.386 101.533 306.7 100.775 303.942 99.661C301.247 98.4802 298.579 96.9732 295.935 95.1401C293.357 93.3057 291.002 91.2061 288.868 88.8415C286.734 86.4117 284.92 83.7798 283.428 80.9458C282.002 78.1105 281.093 75.1341 280.702 72.0166C280.322 69.4198 280.229 66.5566 280.424 63.4268C280.683 60.2306 281.235 57.0607 282.081 53.9173C282.99 50.7075 284.261 47.6203 285.892 44.6558C287.586 41.6249 289.745 38.9749 292.367 36.706C294.988 34.3719 298.076 32.549 301.63 31.2373C305.247 29.8592 309.433 29.1854 314.188 29.2161ZM297.539 69.1243C296.774 76.108 297.542 81.6921 299.844 85.8766C302.211 90.0597 305.682 92.5592 310.257 93.375C312.48 93.7843 314.586 93.2843 316.575 91.8752C318.628 90.3996 320.472 88.3097 322.109 85.6055C323.745 82.9014 325.144 79.7464 326.306 76.1406C327.468 72.5347 328.301 68.773 328.805 64.8553C329.309 60.9376 329.267 57.4221 328.681 54.3087C328.159 51.1288 327.289 48.4446 326.071 46.2561C324.851 44.0025 323.383 42.2751 321.664 41.0738C320.011 39.8712 318.305 39.2232 316.544 39.1299C313.481 38.9987 310.829 39.8682 308.589 41.7384C306.348 43.5436 304.476 45.8945 302.974 48.7912C301.472 51.6878 300.27 54.9364 299.369 58.5368C298.533 62.1358 297.923 65.665 297.539 69.1243ZM348.436 32.1128C350.52 32.1342 352.343 32.1286 353.905 32.0959C355.466 31.9981 356.735 31.9389 357.711 31.9185L360.542 31.8592C361.257 31.7791 362.135 31.7281 363.176 31.7063C364.088 31.6872 365.194 31.6641 366.496 31.6368C367.798 31.6095 369.296 31.6107 370.989 31.6403C371.548 33.452 372.171 35.2297 372.859 36.9734C373.611 38.6508 374.261 40.1674 374.81 41.5234C375.495 43.137 376.178 44.653 376.859 46.0714C377.54 47.4897 378.357 49.1982 379.311 51.1969C380.127 52.8729 381.115 54.936 382.273 57.3862C383.43 59.7714 384.79 62.5104 386.352 65.6034C387.026 63.5706 387.638 61.7019 388.188 59.9973C388.804 58.2913 389.327 56.8152 389.756 55.569C390.247 54.1261 390.643 52.8154 390.944 51.637C391.245 50.4586 391.573 49.0191 391.928 47.3186C392.223 45.8798 392.545 44.1474 392.893 42.1214C393.307 40.0941 393.713 37.7413 394.113 35.0631C396.001 35.0235 397.693 34.9881 399.19 34.9567C400.687 34.9254 401.988 34.8656 403.093 34.7773C404.33 34.7514 405.436 34.6957 406.411 34.6101C407.452 34.5883 408.85 34.4939 410.605 34.3269C412.099 34.1654 414.083 34.0262 416.555 33.9093C419.09 33.7259 422.211 33.4977 425.917 33.2247C424.571 34.2297 423.485 35.2292 422.659 36.2233C421.897 37.1509 421.296 37.9775 420.855 38.7031C420.352 39.5601 420.044 40.3806 419.93 41.1644C419.813 41.818 419.715 43.3178 419.633 45.6638C419.617 48.0084 419.578 50.8093 419.516 54.0665C419.518 57.2573 419.525 60.6758 419.536 64.3222C419.612 67.9673 419.717 71.4164 419.85 74.6695C419.984 77.9226 420.141 80.752 420.321 83.1576C420.566 85.4967 420.857 86.9883 421.196 87.6324C421.668 88.404 422.306 89.3023 423.109 90.3273C423.844 91.2236 424.777 92.2459 425.908 93.3944C427.104 94.5415 428.661 95.8112 430.579 97.2037C427.587 97.3966 425.083 97.5467 423.067 97.654C421.115 97.76 419.49 97.8592 418.189 97.9516C416.693 98.048 415.49 98.1058 414.579 98.1249C413.602 98.1453 412.269 98.2058 410.578 98.3064C409.082 98.4028 407.099 98.542 404.628 98.724C402.156 98.8409 398.969 99.0379 395.068 99.315C395.958 98.2545 396.782 97.1953 397.541 96.1375C398.3 95.0797 398.932 94.1223 399.435 93.2652C400.065 92.2752 400.598 91.3198 401.035 90.399C401.465 89.1528 401.776 86.8997 401.968 83.6397C402.17 80.8354 402.281 76.8283 402.302 71.6183C402.322 66.3433 402.174 59.2811 401.858 50.4316C400.664 52.4753 399.6 54.5162 398.666 56.5545C397.795 58.5263 397.019 60.3333 396.337 61.9755C395.596 63.8795 394.918 65.717 394.304 67.4881C393.691 69.3242 393.05 71.3563 392.38 73.5844C391.769 75.4856 391.035 77.7476 390.178 80.3703C389.386 82.9916 388.47 85.876 387.429 89.0235L383.723 89.2965C383.148 86.7038 382.578 84.3715 382.014 82.2995C381.448 80.1624 380.889 78.3508 380.337 76.8647C379.714 75.1195 379.096 73.5696 378.481 72.215C377.802 70.8617 377.054 69.3471 376.237 67.6712C375.491 66.2542 374.577 64.5802 373.495 62.6494C372.477 60.7171 371.293 58.5605 369.94 56.1794C369.429 62.8322 369.151 68.2429 369.108 72.4113C369.064 76.5147 369.131 79.7041 369.309 81.9795C369.496 84.7106 369.733 86.6917 370.019 87.923C370.433 89.0214 371.077 90.2451 371.952 91.5943C372.693 92.7509 373.698 94.1299 374.969 95.7312C376.304 97.2661 378 98.9888 380.059 100.899C378.627 100.929 377.13 100.961 375.568 100.993C374.006 101.026 372.574 101.089 371.274 101.181C369.713 101.279 368.184 101.343 366.687 101.375C365.126 101.472 363.306 101.608 361.226 101.782C359.406 101.95 357.228 102.126 354.692 102.31C352.156 102.493 349.232 102.782 345.919 103.177C347.332 102.236 348.486 101.333 349.379 100.467C350.271 99.537 350.97 98.7084 351.476 97.9815C352.109 97.1217 352.58 96.2653 352.887 95.4123C353.072 94.8875 353.21 93.745 353.304 91.9849C353.462 90.2234 353.58 88.072 353.657 85.5308C353.799 82.9882 353.87 80.154 353.87 77.0284C353.934 73.9013 353.966 70.7424 353.964 67.5516C354.026 64.2944 354.058 61.1355 354.059 58.0749C354.058 54.9493 354.032 52.1497 353.98 49.6763C353.992 47.1364 353.981 45.0203 353.945 43.328C353.91 41.6356 353.887 40.5617 353.878 40.106C353.662 39.1338 353.349 38.1636 352.938 37.1954C352.594 36.356 352.055 35.4882 351.32 34.592C350.585 33.6957 349.624 32.8693 348.436 32.1128ZM428.749 33.1654C430.967 33.3794 432.826 33.5358 434.326 33.6347C435.89 33.667 437.161 33.7381 438.14 33.8478C439.314 33.9534 440.227 33.9994 440.878 33.9858C441.595 34.0359 442.669 33.9809 444.098 33.8207C445.332 33.6646 446.988 33.4671 449.067 33.2282C451.211 32.9879 453.939 32.6378 457.25 32.1777C455.78 33.5109 454.603 34.8053 453.717 36.0611C452.896 37.2505 452.266 38.3056 451.83 39.2264C451.267 40.3452 450.931 41.3941 450.821 42.3732C450.594 43.9408 450.411 46.0935 450.273 48.8314C450.199 51.5028 450.13 54.4346 450.066 57.6267C450.003 60.8188 450.007 64.1072 450.078 67.4919C450.149 70.8766 450.249 74.0978 450.378 77.1557C450.571 80.1471 450.822 82.8117 451.131 85.1495C451.506 87.4859 451.932 89.1701 452.409 90.202C453.085 91.3599 453.793 92.5172 454.533 93.6739C455.205 94.6366 456.007 95.6291 456.94 96.6515C457.873 97.6738 458.932 98.4982 460.117 99.1245C456.273 99.0097 453.212 98.9761 450.934 99.0239L447.419 99.0975C446.377 99.1193 445.044 99.2123 443.42 99.3766C442.056 99.5354 440.334 99.7017 438.253 99.8755C436.173 100.049 433.671 100.297 430.748 100.619C432.211 98.9602 433.35 97.3735 434.164 95.8587C434.979 94.3439 435.635 93.0278 436.133 91.9104C436.692 90.5963 437.056 89.3514 437.227 88.1757C437.452 86.4779 437.603 84.391 437.682 81.9148C437.824 79.3722 437.897 76.6683 437.903 73.803C437.906 70.8725 437.844 67.911 437.716 64.9182C437.652 61.859 437.526 58.9313 437.337 56.1351C437.148 53.339 436.9 50.8046 436.592 48.5319C436.349 46.2578 436.05 44.4408 435.696 43.0807C435.483 42.2386 435.073 41.303 434.465 40.2738C433.925 39.3735 433.188 38.347 432.252 37.1945C431.38 35.9755 430.212 34.6325 428.749 33.1654ZM458.682 30.5849C461.622 31.0442 464.038 31.3518 465.929 31.5075C467.821 31.6632 469.354 31.7939 470.528 31.8996C471.898 32.0011 472.973 32.0112 473.752 31.9297L476.681 31.8684C477.723 31.8465 479.025 31.8193 480.587 31.7865C482.213 31.6874 484.23 31.6126 486.638 31.5621C488.072 34.7229 489.37 37.626 490.532 40.2715C491.76 42.9157 492.784 45.1734 493.604 47.0446C494.563 49.3037 495.453 51.3363 496.272 53.1424C497.231 55.4015 498.26 57.887 499.358 60.599C500.457 63.3109 501.455 65.8622 502.351 68.2528C503.313 70.642 504.103 72.6116 504.722 74.1615C505.34 75.7114 505.648 76.4212 505.645 76.2911C505.644 76.226 505.663 75.5744 505.702 74.3363C505.74 73.0331 505.772 71.4371 505.797 69.5481C505.821 67.5941 505.842 65.4773 505.859 63.1978C505.941 60.8518 505.959 58.6048 505.914 56.4569C505.932 54.2424 505.923 52.224 505.884 50.4015C505.846 48.5789 505.753 47.2134 505.603 46.3049C505.385 45.2024 504.968 43.9414 504.352 42.5217C503.805 41.2959 503.059 39.8463 502.112 38.1731C501.164 36.4348 499.853 34.4761 498.179 32.2971C500.849 32.3063 503.031 32.2932 504.723 32.2577C506.415 32.2223 507.782 32.1937 508.824 32.1718C509.995 32.1473 510.906 32.0957 511.555 32.0169C512.402 31.9992 513.442 31.9123 514.676 31.7562C515.779 31.6029 517.144 31.4766 518.77 31.3774C520.46 31.2118 522.539 31.0054 525.009 30.7584C523.604 32.0902 522.491 33.3507 521.669 34.5401C520.847 35.7294 520.186 36.7852 519.684 37.7073C519.12 38.761 518.75 39.7456 518.574 40.6609C518.338 41.838 518.15 43.7629 518.011 46.4357C517.935 49.042 517.834 51.9745 517.707 55.2331C517.645 58.4903 517.586 61.8777 517.529 65.3953C517.473 68.9128 517.41 72.1375 517.341 75.0693C517.387 77.2823 517.372 79.6595 517.295 82.2007C517.21 84.3514 517.131 86.795 517.058 89.5315C516.984 92.2029 516.878 94.9076 516.739 97.6454L508.054 98.0227C505.422 93.5847 503.193 89.7894 501.369 86.6368C499.608 83.4177 498.153 80.7784 497.003 78.7187C495.716 76.3363 494.632 74.3403 493.752 72.7308C493.003 71.1836 492.022 69.4134 490.808 67.4202C489.796 65.7483 488.516 63.6913 486.967 61.2492C485.483 58.8058 483.699 56.0105 481.614 52.8634C481.513 57.3587 481.496 61.201 481.563 64.3904C481.693 67.5134 481.845 70.1149 482.019 72.1951C482.265 74.5993 482.535 76.6123 482.829 78.2341C483.188 79.7895 483.68 81.5374 484.307 83.4778C484.863 85.1592 485.523 87.1315 486.287 89.3947C487.115 91.6564 488.113 94.2077 489.28 97.0485C485.435 96.9337 482.569 96.896 480.682 96.9356L477.753 96.9969C476.841 97.016 475.607 97.1396 474.049 97.3675C472.749 97.525 470.964 97.7578 468.691 98.0658C466.483 98.3726 463.724 98.7885 460.414 99.3137C461.937 97.3933 463.138 95.6425 464.016 94.0613C464.958 92.4136 465.678 91.031 466.176 89.9136C466.799 88.5982 467.231 87.4495 467.471 86.4677C467.645 85.4222 467.737 83.6295 467.749 81.0896C467.76 78.4847 467.698 75.5556 467.565 72.3025C467.496 68.9829 467.358 65.502 467.151 61.8597C467.01 58.216 466.841 54.8334 466.645 51.7118C466.45 48.5902 466.231 45.9249 465.99 43.716C465.813 41.5056 465.687 40.1408 465.611 39.6214C465.398 38.7794 464.988 37.8763 464.382 36.9122C463.843 36.0769 463.14 35.1474 462.272 34.1237C461.403 33.0349 460.206 31.8553 458.682 30.5849ZM560.032 24.0664C563.55 24.1229 567.111 24.6995 570.715 25.7962C574.384 26.8263 577.774 28.5786 580.886 31.0531C583.997 33.4624 586.668 36.6298 588.9 40.5553C591.129 44.4157 592.564 49.1719 593.203 54.8238C593.756 59.4356 593.266 64.0367 591.734 68.6271C590.266 73.151 588.172 77.3299 585.452 81.1637C582.733 84.9976 579.578 88.287 575.989 91.0321C572.398 93.712 568.79 95.5132 565.162 96.4358C562.96 97.0028 560.521 97.1191 557.844 96.7844C555.231 96.3833 552.545 95.6256 549.787 94.5112C547.092 93.3304 544.423 91.8235 541.78 89.9904C539.202 88.156 536.846 86.0564 534.713 83.6917C532.578 81.262 530.765 78.6301 529.273 75.7961C527.846 72.9608 526.937 69.9844 526.546 66.8669C526.166 64.2701 526.074 61.4068 526.269 58.2771C526.527 55.0809 527.08 51.911 527.925 48.7676C528.835 45.5578 530.105 42.4706 531.736 39.5061C533.431 36.4752 535.589 33.8252 538.212 31.5563C540.833 29.2222 543.92 27.3993 547.474 26.0876C551.092 24.7095 555.278 24.0357 560.032 24.0664ZM543.384 63.9746C542.619 70.9583 543.387 76.5424 545.688 80.7269C548.055 84.91 551.526 87.4095 556.102 88.2253C558.324 88.6345 560.43 88.1346 562.419 86.7255C564.472 85.2498 566.317 83.16 567.953 80.4558C569.59 77.7517 570.989 74.5967 572.15 70.9909C573.312 67.385 574.145 63.6233 574.649 59.7056C575.153 55.7879 575.112 52.2724 574.526 49.159C574.003 45.9791 573.133 43.2949 571.915 41.1064C570.696 38.8528 569.227 37.1254 567.509 35.9241C565.856 34.7215 564.149 34.0735 562.389 33.9801C559.326 33.849 556.674 34.7185 554.434 36.5887C552.193 38.3939 550.321 40.7448 548.819 43.6415C547.317 46.5381 546.115 49.7867 545.213 53.3871C544.377 56.9861 543.767 60.5153 543.384 63.9746ZM602.083 26.4089C603.326 26.7085 604.503 26.9443 605.614 27.1164C606.723 27.2234 607.702 27.3331 608.551 27.4456C609.53 27.5553 610.444 27.6338 611.291 27.6812C612.204 27.7272 613.279 27.7698 614.517 27.809C615.625 27.8509 616.96 27.8555 618.522 27.8228C620.084 27.79 621.939 27.7512 624.087 27.7062C622.294 32.2369 620.844 36.0767 619.738 39.2256C618.63 42.3093 617.772 44.8669 617.164 46.8984C616.497 49.2566 616.016 51.1877 615.722 52.6915C615.493 54.1941 615.206 56.0234 614.86 58.1795C614.574 60.074 614.167 62.3942 613.639 65.1402C613.11 67.8863 612.527 71.1544 611.89 74.9446L603.29 74.7341C603.739 71.2734 604.035 68.3369 604.18 65.9244C604.324 63.4469 604.444 61.3932 604.54 59.7632C604.63 57.8729 604.663 56.3094 604.637 55.0727C604.609 53.7709 604.471 51.8202 604.221 49.2207C604.046 47.0755 603.79 44.1831 603.453 40.5435C603.115 36.8388 602.658 32.1273 602.083 26.4089ZM613.999 82.324C614.469 83.0304 614.747 83.8386 614.831 84.7485C614.979 85.5919 614.932 86.472 614.691 87.3887C614.513 88.239 614.107 89.0615 613.473 89.8562C612.903 90.6495 612.102 91.2849 611.071 91.7624C609.008 92.7823 607.159 93.0816 605.522 92.66C603.884 92.1734 602.662 91.3524 601.856 90.1972C601.387 89.5558 601.111 88.8453 601.03 88.0656C601.012 87.2194 601.158 86.4024 601.467 85.6145C601.775 84.7615 602.279 83.9695 602.98 83.2385C603.681 82.5075 604.58 81.9026 605.677 81.4238C607.806 80.4676 609.557 80.1053 610.929 80.337C612.366 80.5674 613.39 81.2297 613.999 82.324Z" fill="white"/>
</g>
</g>
<defs>
<clipPath id="clip0_28_4">
<rect width="647" height="135" fill="white"/>
</clipPath>
<clipPath id="clip1_28_4">
<rect width="644.419" height="123.108" fill="white" transform="translate(0 11.2467) rotate(-1)"/>
</clipPath>
</defs>
</svg>
