<svg width="12" height="21" viewBox="0 0 12 21" fill="none" xmlns="http://www.w3.org/2000/svg">
    <path
        d="M0 10.5C0 10.8931 0.145996 11.23 0.460449 11.522L9.19775 20.0796C9.44482 20.3267 9.75928 20.4614 10.1299 20.4614C10.8711 20.4614 11.4663 19.8774 11.4663 19.125C11.4663 18.7544 11.3091 18.4287 11.062 18.1704L3.18945 10.5L11.062 2.82959C11.3091 2.57129 11.4663 2.23438 11.4663 1.875C11.4663 1.12256 10.8711 0.538574 10.1299 0.538574C9.75928 0.538574 9.44482 0.67334 9.19775 0.92041L0.460449 9.4668C0.145996 9.77002 0 10.1069 0 10.5Z"
        fill="white" />
</svg>