<svg width="14" height="15" viewBox="0 0 14 15" fill="none" xmlns="http://www.w3.org/2000/svg">
    <path
        d="M7.67591 0.939498L9.25493 4.28509C9.36474 4.51778 9.57705 4.67901 9.82265 4.71627L13.3536 5.2528C13.9721 5.34685 14.2189 6.14141 13.7715 6.59732L11.2165 9.20149C11.039 9.38257 10.9578 9.64366 10.9998 9.89925L11.6029 13.5765C11.7086 14.2205 11.062 14.7115 10.5089 14.4077L7.35088 12.6717C7.13127 12.551 6.86873 12.551 6.64912 12.6717L3.49108 14.4077C2.93797 14.7118 2.29141 14.2205 2.39712 13.5765L3.00017 9.89925C3.04222 9.64366 2.96104 9.38257 2.78348 9.20149L0.228484 6.59732C-0.218911 6.14111 0.0278572 5.34654 0.646383 5.2528L4.17735 4.71627C4.42295 4.67901 4.63526 4.51778 4.74507 4.28509L6.32409 0.939498C6.60035 0.353501 7.39936 0.353501 7.67591 0.939498Z"
        fill="currentColor" />
</svg>